<svg width="138" height="138" viewBox="0 0 138 138" fill="none" xmlns="http://www.w3.org/2000/svg">
<path d="M101.039 73.2347C101.331 72.7279 101.713 72.3594 102.184 72.1293C102.653 71.9016 103.168 71.8116 103.727 71.8592C104.287 71.9068 104.849 72.0932 105.412 72.4185C105.98 72.7466 106.425 73.1431 106.748 73.6079C107.068 74.0752 107.246 74.5682 107.281 75.0871C107.319 75.6074 107.195 76.1148 106.909 76.6093C106.69 76.9882 106.418 77.2888 106.093 77.5111C105.771 77.7348 105.419 77.8696 105.038 77.9155C104.658 77.9652 104.278 77.9144 103.896 77.7629L104.28 77.0987C104.639 77.2144 105.008 77.206 105.386 77.0735C105.766 76.9448 106.072 76.6787 106.305 76.2752C106.514 75.9135 106.6 75.5369 106.564 75.1452C106.53 74.755 106.384 74.3803 106.125 74.0211C105.868 73.6658 105.51 73.3561 105.053 73.0919C104.593 72.8263 104.141 72.6675 103.699 72.6154C103.259 72.5649 102.86 72.6198 102.502 72.7803C102.142 72.9433 101.855 73.2105 101.64 73.582C101.495 73.833 101.41 74.0888 101.384 74.3494C101.359 74.6139 101.394 74.8667 101.488 75.1078C101.58 75.3514 101.732 75.5673 101.945 75.7558L101.561 76.42C101.248 76.1734 101.013 75.8755 100.857 75.5263C100.702 75.181 100.637 74.8105 100.662 74.4149C100.686 74.0217 100.811 73.6284 101.039 73.2347ZM106.274 81.8939L98.7161 77.5303L99.0953 76.8734L106.653 81.237L106.274 81.8939ZM96.3224 81.4035C96.6051 80.9139 96.9793 80.5526 97.4451 80.3197C97.9095 80.0892 98.4218 79.9946 98.9819 80.0358C99.5444 80.0785 100.114 80.266 100.689 80.5984C101.27 80.9336 101.719 81.3342 102.038 81.8C102.358 82.2673 102.534 82.7589 102.564 83.2749C102.595 83.7948 102.469 84.2996 102.187 84.7892C101.904 85.2788 101.53 85.6388 101.066 85.8693C100.602 86.0998 100.088 86.1937 99.5255 86.1511C98.9615 86.1108 98.3892 85.9231 97.8086 85.5879C97.2329 85.2555 96.7859 84.8564 96.4677 84.3905C96.1519 83.9261 95.9784 83.434 95.9473 82.9141C95.9147 82.3966 96.0397 81.8931 96.3224 81.4035ZM96.9239 81.7508C96.6967 82.1445 96.61 82.5389 96.6639 82.9342C96.7178 83.3294 96.8802 83.6987 97.1511 84.0421C97.4205 84.3879 97.7668 84.683 98.19 84.9273C98.6131 85.1716 99.0431 85.3247 99.4797 85.3865C99.915 85.4509 100.318 85.4083 100.69 85.2587C101.062 85.1092 101.361 84.8376 101.589 84.444C101.815 84.0528 101.9 83.6576 101.845 83.2585C101.789 82.8618 101.624 82.4899 101.353 82.1426C101.079 81.7979 100.731 81.5033 100.308 81.259C99.8847 81.0147 99.4567 80.8611 99.0239 80.7982C98.5897 80.7378 98.188 80.783 97.8187 80.9339C97.4495 81.0849 97.1512 81.3572 96.9239 81.7508ZM94.2543 90.2611L97.7566 92.2831L97.3773 92.94L91.7088 89.6673L92.088 89.0104L93.0291 89.5537L93.0589 89.502C92.8453 89.2015 92.7244 88.8513 92.6963 88.4512C92.6705 88.0526 92.7777 87.6453 93.0178 87.2295C93.2266 86.8679 93.4907 86.5923 93.8101 86.4027C94.1319 86.2146 94.4928 86.1293 94.8926 86.1469C95.2925 86.1646 95.7163 86.3027 96.1641 86.5612L99.8361 88.6812L99.4568 89.3381L95.8254 87.2415C95.3826 86.9858 94.9506 86.9103 94.5294 87.0148C94.1106 87.1208 93.7834 87.378 93.5476 87.7864C93.3998 88.0422 93.3193 88.3238 93.3059 88.631C93.2926 88.9382 93.36 89.2363 93.5081 89.5252C93.6587 89.8155 93.9074 90.0608 94.2543 90.2611ZM89.4083 93.379C89.6768 92.914 90.0349 92.5779 90.4826 92.3706C90.9304 92.1632 91.4312 92.0883 91.9853 92.1457C92.5379 92.2056 93.107 92.4046 93.6925 92.7427C94.2756 93.0793 94.73 93.4713 95.0557 93.9185C95.3825 94.3695 95.5661 94.8413 95.6065 95.3338C95.6494 95.8276 95.5359 96.3083 95.2661 96.7757C95.0672 97.1202 94.8402 97.3713 94.5851 97.5291C94.3324 97.6883 94.0765 97.7849 93.8174 97.819C93.5582 97.8531 93.3218 97.8593 93.108 97.8375L93.0739 97.8966L96.0447 99.6118L95.6633 100.272L88.1053 95.9087L88.476 95.2666L89.5278 95.8738L89.5725 95.7963C89.4443 95.6206 89.3297 95.4101 89.2286 95.1648C89.13 94.9208 89.0859 94.6477 89.0964 94.3454C89.1055 94.0456 89.2095 93.7235 89.4083 93.379ZM89.9651 93.8038C89.7535 94.1704 89.6727 94.5404 89.7229 94.9138C89.7755 95.2886 89.9386 95.6452 90.2123 95.9837C90.487 96.326 90.8532 96.6292 91.3108 96.8934C91.7635 97.1548 92.2024 97.318 92.6274 97.3829C93.0549 97.4493 93.4416 97.4102 93.7876 97.2655C94.136 97.1222 94.4168 96.866 94.6299 96.497C94.8486 96.1181 94.9299 95.7386 94.8738 95.3585C94.8188 94.9823 94.6556 94.6257 94.3844 94.2886C94.1117 93.9541 93.7577 93.6611 93.3222 93.4097C92.8818 93.1554 92.4454 92.9937 92.013 92.9244C91.5806 92.8552 91.1852 92.8894 90.827 93.027C90.4697 93.1684 90.1825 93.4274 89.9651 93.8038Z" fill="white"/>
<path d="M28.2968 48.5C27.1421 46.5 28.5855 44 30.8949 44L107.105 44C109.415 44 110.858 46.5 109.703 48.5L71.5981 114.5C70.4434 116.5 67.5566 116.5 66.4019 114.5L28.2968 48.5Z" fill="#FFFCFC"/>
<path d="M42.358 40.1364C41.821 40.1364 41.3509 39.9943 40.9475 39.7102C40.544 39.4261 40.2287 39.0298 40.0014 38.5213C39.777 38.0128 39.6648 37.4205 39.6648 36.7443C39.6648 36.071 39.777 35.4815 40.0014 34.9759C40.2287 34.4673 40.5455 34.0724 40.9517 33.7912C41.358 33.5071 41.831 33.3651 42.3708 33.3651C42.7685 33.3651 43.0994 33.4361 43.3637 33.5781C43.6279 33.7173 43.8395 33.8906 43.9986 34.098C44.1577 34.3054 44.2813 34.5071 44.3693 34.7031H44.4375V31.2727H45.2003V40H44.4588V38.7855H44.3693C44.2813 38.9844 44.1563 39.1889 43.9943 39.3991C43.8324 39.6065 43.6179 39.7813 43.3509 39.9233C43.0867 40.0653 42.7557 40.1364 42.358 40.1364ZM42.4475 39.4418C42.8708 39.4418 43.2316 39.3267 43.5298 39.0966C43.8281 38.8636 44.0554 38.544 44.2117 38.1378C44.3708 37.7287 44.4503 37.2599 44.4503 36.7315C44.4503 36.2088 44.3722 35.7472 44.2159 35.3466C44.0597 34.9432 43.8324 34.6278 43.5341 34.4006C43.2358 34.1705 42.8736 34.0554 42.4475 34.0554C42.01 34.0554 41.6406 34.1747 41.3395 34.4134C41.0412 34.6491 40.8139 34.9688 40.6577 35.3722C40.5043 35.7756 40.4276 36.2287 40.4276 36.7315C40.4276 37.2401 40.5057 37.6989 40.6619 38.108C40.8182 38.517 41.0455 38.8423 41.3438 39.0838C41.6449 39.3224 42.0128 39.4418 42.4475 39.4418ZM50.0071 40.1364C49.3963 40.1364 48.8679 39.9943 48.4219 39.7102C47.9759 39.4233 47.6307 39.027 47.3864 38.5213C47.1449 38.0128 47.0242 37.4276 47.0242 36.7656C47.0242 36.1065 47.1449 35.5213 47.3864 35.0099C47.6307 34.4957 47.9673 34.0938 48.3963 33.804C48.8281 33.5114 49.3267 33.3651 49.8921 33.3651C50.2472 33.3651 50.5895 33.4304 50.9191 33.5611C51.2486 33.6889 51.5441 33.8864 51.8054 34.1534C52.0696 34.4176 52.2784 34.7514 52.4318 35.1548C52.5852 35.5554 52.6619 36.0298 52.6619 36.5781V36.9531H47.5483V36.2841H51.8864C51.8864 35.8636 51.8012 35.4858 51.6307 35.1506C51.4631 34.8125 51.2287 34.5455 50.9276 34.3494C50.6293 34.1534 50.2841 34.0554 49.8921 34.0554C49.4773 34.0554 49.1122 34.1662 48.7969 34.3878C48.4816 34.6094 48.2344 34.902 48.0554 35.2656C47.8793 35.6293 47.7898 36.027 47.7869 36.4588V36.8594C47.7869 37.3793 47.8764 37.8338 48.0554 38.223C48.2372 38.6094 48.4943 38.9091 48.8267 39.1222C49.1591 39.3352 49.5526 39.4418 50.0071 39.4418C50.3168 39.4418 50.5881 39.3935 50.821 39.2969C51.0568 39.2003 51.2543 39.071 51.4134 38.9091C51.5753 38.7443 51.6975 38.5639 51.7798 38.3679L52.5 38.6023C52.4006 38.8778 52.2372 39.1321 52.01 39.3651C51.7855 39.598 51.5043 39.7855 51.1662 39.9276C50.831 40.0668 50.4446 40.1364 50.0071 40.1364ZM56.8306 42.5909C56.3846 42.5909 55.994 42.5327 55.6588 42.4162C55.3235 42.3026 55.0409 42.1463 54.8107 41.9474C54.5806 41.7486 54.4017 41.5256 54.2738 41.2784L54.896 40.8693C54.9897 41.0341 55.1147 41.196 55.271 41.3551C55.4301 41.5142 55.636 41.6463 55.8889 41.7514C56.1445 41.8565 56.4585 41.9091 56.8306 41.9091C57.4102 41.9091 57.8775 41.7642 58.2326 41.4744C58.5906 41.1847 58.7695 40.7344 58.7695 40.1236V38.6491H58.7014C58.6133 38.848 58.4869 39.0469 58.3221 39.2457C58.1573 39.4418 57.9414 39.6051 57.6744 39.7358C57.4102 39.8665 57.082 39.9318 56.69 39.9318C56.1673 39.9318 55.7028 39.8026 55.2965 39.544C54.8931 39.2855 54.5749 38.9162 54.342 38.4361C54.1119 37.9531 53.9968 37.3778 53.9968 36.7102C53.9968 36.0483 54.109 35.4659 54.3335 34.9631C54.5607 34.4602 54.8775 34.0682 55.2838 33.7869C55.69 33.5057 56.163 33.3651 56.7028 33.3651C57.1034 33.3651 57.4357 33.4361 57.6999 33.5781C57.9642 33.7173 58.1758 33.8906 58.3349 34.098C58.4968 34.3054 58.6232 34.5071 58.7142 34.7031H58.7909V33.4545H59.5323V40.1705C59.5323 40.7244 59.4144 41.1804 59.1786 41.5384C58.9428 41.8963 58.6218 42.1605 58.2156 42.331C57.8093 42.5043 57.3477 42.5909 56.8306 42.5909ZM56.7795 39.2372C57.1999 39.2372 57.5593 39.1364 57.8576 38.9347C58.1559 38.7301 58.3846 38.4375 58.5437 38.0568C58.7028 37.6761 58.7823 37.223 58.7823 36.6974C58.7823 36.1861 58.7042 35.733 58.548 35.3381C58.3917 34.9403 58.1644 34.6278 57.8661 34.4006C57.5707 34.1705 57.2085 34.0554 56.7795 34.0554C56.342 34.0554 55.9727 34.1733 55.6715 34.4091C55.3704 34.6449 55.1431 34.9631 54.9897 35.3636C54.8363 35.7614 54.7596 36.206 54.7596 36.6974C54.7596 37.1974 54.8377 37.6392 54.994 38.0227C55.1502 38.4034 55.3789 38.7017 55.6801 38.9176C55.9812 39.1307 56.3477 39.2372 56.7795 39.2372ZM65.6996 37.4986V33.4545H66.4581V40H65.6996V38.9134H65.6399C65.4865 39.2486 65.2436 39.5284 64.9112 39.7528C64.5789 39.9744 64.1726 40.0852 63.6925 40.0852C63.2749 40.0852 62.9041 39.9943 62.5803 39.8125C62.2564 39.6278 62.0021 39.358 61.8175 39.0028C61.6328 38.6477 61.5405 38.2116 61.5405 37.6946V33.4545H62.299V37.6477C62.299 38.1591 62.4496 38.571 62.7507 38.8835C63.0519 39.1932 63.4382 39.348 63.9098 39.348C64.2053 39.348 64.4894 39.277 64.7621 39.1349C65.0348 38.9929 65.2593 38.7855 65.4354 38.5128C65.6115 38.2372 65.6996 37.8991 65.6996 37.4986ZM68.2617 40V39.3991L72.0458 34.2259V34.1705H68.4237V33.4545H73.0217V34.081L69.3058 39.2287V39.2841H73.158V40H68.2617ZM74.8296 40V33.4545H75.5668V34.4602H75.635C75.7656 34.1222 75.983 33.8565 76.287 33.6634C76.5938 33.4673 76.9617 33.3693 77.3906 33.3693C77.8423 33.3693 78.2131 33.4759 78.5029 33.6889C78.7955 33.8991 79.0142 34.1889 79.1591 34.5582H79.2145C79.3622 34.1946 79.6023 33.9063 79.9347 33.6932C80.2699 33.4773 80.6762 33.3693 81.1534 33.3693C81.7614 33.3693 82.2415 33.5611 82.5938 33.9446C82.946 34.3253 83.1222 34.8821 83.1222 35.6151V40H82.3637V35.6151C82.3637 35.098 82.2316 34.7102 81.9674 34.4517C81.7031 34.1932 81.3551 34.0639 80.9233 34.0639C80.4233 34.0639 80.0384 34.2173 79.7685 34.5241C79.4986 34.831 79.3637 35.2202 79.3637 35.6918V40H78.5881V35.5469C78.5881 35.1037 78.4645 34.7457 78.2173 34.473C77.9702 34.2003 77.6222 34.0639 77.1733 34.0639C76.8722 34.0639 76.6009 34.1378 76.3594 34.2855C76.1208 34.4332 75.9318 34.6392 75.7926 34.9034C75.6563 35.1648 75.5881 35.4659 75.5881 35.8068V40H74.8296ZM86.9585 40.1491C86.5636 40.1491 86.2028 40.0724 85.8761 39.919C85.5494 39.7628 85.2894 39.5384 85.0963 39.2457C84.9031 38.9503 84.8065 38.5923 84.8065 38.1719C84.8065 37.848 84.8676 37.5753 84.9897 37.3537C85.1119 37.1321 85.2852 36.9503 85.5096 36.8082C85.734 36.6662 85.9997 36.554 86.3065 36.4716C86.6133 36.3892 86.9514 36.3253 87.3207 36.2798C87.6872 36.2344 87.9968 36.1946 88.2497 36.1605C88.5053 36.1264 88.7 36.0724 88.8335 35.9986C88.967 35.9247 89.0338 35.8054 89.0338 35.6406V35.4872C89.0338 35.0412 88.9002 34.6903 88.6332 34.4347C88.369 34.1761 87.9883 34.0469 87.4911 34.0469C87.0196 34.0469 86.6346 34.1506 86.3363 34.358C86.0409 34.5653 85.8335 34.8097 85.7142 35.0909L84.994 34.831C85.1417 34.473 85.3463 34.1875 85.6076 33.9744C85.869 33.7585 86.1616 33.6037 86.4855 33.5099C86.8093 33.4134 87.1374 33.3651 87.4698 33.3651C87.7198 33.3651 87.9798 33.3977 88.2497 33.4631C88.5224 33.5284 88.7752 33.642 89.0082 33.804C89.2411 33.9631 89.4301 34.1861 89.575 34.473C89.7198 34.7571 89.7923 35.1179 89.7923 35.5554V40H89.0338V38.9645H88.9869C88.896 39.1577 88.761 39.3452 88.5821 39.527C88.4031 39.7088 88.1786 39.858 87.9088 39.9744C87.6389 40.0909 87.3221 40.1491 86.9585 40.1491ZM87.0607 39.4545C87.4642 39.4545 87.8136 39.3651 88.109 39.1861C88.4045 39.0071 88.6318 38.7699 88.7909 38.4744C88.9528 38.1761 89.0338 37.848 89.0338 37.4901V36.544C88.9769 36.598 88.8818 36.6463 88.7482 36.6889C88.6176 36.7315 88.4656 36.7699 88.2923 36.804C88.1218 36.8352 87.9514 36.8622 87.7809 36.8849C87.6105 36.9077 87.4571 36.9276 87.3207 36.9446C86.9514 36.9901 86.636 37.0611 86.3747 37.1577C86.1133 37.2543 85.913 37.3878 85.7738 37.5582C85.6346 37.7259 85.565 37.9418 85.565 38.206C85.565 38.6037 85.7071 38.9119 85.9911 39.1307C86.2752 39.3466 86.6318 39.4545 87.0607 39.4545ZM92.5686 35.9091V40H91.81V33.4545H92.5473V34.4815H92.6154C92.7688 34.1463 93.0075 33.8778 93.3313 33.6761C93.658 33.4716 94.0615 33.3693 94.5416 33.3693C94.9819 33.3693 95.3683 33.4616 95.7007 33.6463C96.0359 33.8281 96.2958 34.0966 96.4805 34.4517C96.668 34.8068 96.7617 35.2429 96.7617 35.7599V40H96.0032V35.8068C96.0032 35.2699 95.8527 34.8452 95.5515 34.5327C95.2532 34.2202 94.8526 34.0639 94.3498 34.0639C94.0061 34.0639 93.7007 34.1378 93.4336 34.2855C93.1666 34.4332 92.9549 34.6463 92.7987 34.9247C92.6453 35.2003 92.5686 35.5284 92.5686 35.9091Z" fill="white"/>
<path d="M71.5981 99.5C70.4434 101.5 67.5566 101.5 66.4019 99.5L41.2872 56C40.1325 54 41.5759 51.5 43.8853 51.5L94.1148 51.5C96.4242 51.5 97.8675 54 96.7128 56L71.5981 99.5Z" fill="#101010"/>
<path d="M43.2383 99.834L50.7963 95.4703L51.1756 96.1272L43.6176 100.491L43.2383 99.834ZM48.6389 91.4607C48.9215 91.9503 49.0473 92.4551 49.0161 92.975C48.9836 93.4924 48.8094 93.9833 48.4936 94.4478C48.1754 94.9136 47.7284 95.3127 47.1527 95.6451C46.5721 95.9803 46.0005 96.1693 45.4379 96.212C44.8729 96.2561 44.3594 96.1621 43.8975 95.9302C43.4317 95.6973 43.0574 95.336 42.7747 94.8464C42.4921 94.3568 42.367 93.8533 42.3996 93.3358C42.4322 92.8184 42.6076 92.3268 42.9258 91.8609C43.2427 91.3926 43.6914 90.9909 44.272 90.6556C44.8477 90.3232 45.4168 90.1357 45.9794 90.093C46.5395 90.0518 47.0524 90.1476 47.5183 90.3806C47.9827 90.6111 48.3562 90.9711 48.6389 91.4607ZM48.0373 91.808C47.8101 91.4144 47.5118 91.1421 47.1425 90.9912C46.7733 90.8402 46.3723 90.7962 45.9395 90.8591C45.5053 90.9195 45.0766 91.0719 44.6534 91.3162C44.2302 91.5605 43.8827 91.8563 43.6108 92.2036C43.3375 92.5483 43.1726 92.9191 43.1163 93.3157C43.0599 93.7124 43.1453 94.1076 43.3726 94.5012C43.5985 94.8924 43.8979 95.164 44.2711 95.316C44.6428 95.4655 45.047 95.5093 45.4837 95.4475C45.9189 95.3832 46.3481 95.2288 46.7713 94.9845C47.1945 94.7402 47.5415 94.4464 47.8123 94.103C48.0818 93.7572 48.2434 93.3866 48.2974 92.9914C48.3513 92.5961 48.2646 92.2017 48.0373 91.808ZM47.2431 84.1341C47.4661 84.5203 47.611 84.8878 47.6777 85.2363C47.7469 85.5834 47.7529 85.9064 47.6958 86.2051C47.6386 86.5038 47.535 86.7703 47.3848 87.0046L46.7195 86.6703C46.8153 86.5068 46.893 86.3175 46.9527 86.1027C47.0109 85.8854 47.0223 85.6409 46.9869 85.3694C46.9501 85.0954 46.8387 84.7973 46.6526 84.475C46.3628 83.9731 46.0037 83.6408 45.5752 83.4782C45.1453 83.313 44.6658 83.3832 44.1369 83.6886L42.86 84.4258L42.8941 84.4848C43.1103 84.4617 43.3457 84.4717 43.6003 84.515C43.8525 84.5597 44.1019 84.665 44.3486 84.8309C44.5939 84.9944 44.8145 85.2459 45.0106 85.5854C45.2719 86.0381 45.3922 86.505 45.3715 86.9861C45.3493 87.4647 45.1885 87.9249 44.8892 88.3667C44.586 88.8075 44.1453 89.1948 43.5672 89.5286C42.9939 89.8595 42.4334 90.0535 41.8858 90.1106C41.3367 90.1652 40.8387 90.0869 40.3921 89.8757C39.9454 89.6645 39.5871 89.3252 39.3172 88.8577C39.1169 88.5108 39.0122 88.1874 39.0031 87.8876C38.9916 87.5892 39.0358 87.3193 39.1359 87.0778C39.2345 86.8339 39.346 86.6235 39.4703 86.4468L39.432 86.3804L38.3506 87.0046L37.9799 86.3625L43.7961 83.0046C44.2758 82.7276 44.7296 82.6017 45.1575 82.6269C45.5854 82.6521 45.9748 82.7981 46.3255 83.0646C46.6787 83.3298 46.9846 83.6863 47.2431 84.1341ZM44.3643 85.8552C44.154 85.4911 43.887 85.2303 43.5632 85.0728C43.2369 84.9167 42.8691 84.865 42.4599 84.9176C42.0507 84.9701 41.6185 85.1278 41.1633 85.3906C40.7205 85.6463 40.3671 85.9405 40.1033 86.2732C39.837 86.6074 39.68 86.9605 39.6323 87.3325C39.5807 87.7034 39.6622 88.0746 39.8767 88.4461C40.0954 88.825 40.3822 89.0859 40.737 89.2288C41.0917 89.3717 41.4809 89.4094 41.9045 89.342C42.3257 89.276 42.7491 89.1201 43.1747 88.8744C43.6077 88.6244 43.9512 88.3358 44.2052 88.0087C44.4568 87.6831 44.6008 87.3359 44.6372 86.9671C44.6712 86.5998 44.5802 86.2292 44.3643 85.8552ZM40.9526 78.4204L35.2841 81.6932L34.9027 81.0326L40.5712 77.7599L40.9526 78.4204ZM34.1159 81.9198C34.194 82.0552 34.2153 82.1971 34.1796 82.3456C34.1415 82.4955 34.0573 82.6081 33.9269 82.6834C33.7965 82.7587 33.6581 82.7746 33.5117 82.7312C33.3628 82.6893 33.2493 82.6006 33.1711 82.4653C33.093 82.33 33.073 82.1874 33.1111 82.0374C33.1467 81.8889 33.2297 81.777 33.3601 81.7017C33.4905 81.6265 33.6302 81.6098 33.7791 81.6518C33.9255 81.6952 34.0378 81.7845 34.1159 81.9198ZM35.6461 77.4111L39.1889 75.3657L39.5682 76.0226L33.8997 79.2953L33.531 78.6569L34.4204 78.1434L34.3864 78.0843C34.0193 78.1191 33.6675 78.0466 33.3309 77.867C32.9904 77.6864 32.7001 77.3881 32.4601 76.9723C32.2399 76.591 32.1267 76.2102 32.1204 75.83C32.1103 75.4488 32.2128 75.0895 32.428 74.752C32.6418 74.4121 32.9726 74.1128 33.4203 73.8543L37.0923 71.7343L37.4716 72.3912L33.8402 74.4878C33.3752 74.7562 33.0827 75.099 32.9626 75.516C32.8411 75.9306 32.9061 76.3556 33.1575 76.7911C33.3294 77.0888 33.546 77.3164 33.8075 77.4738C34.069 77.6312 34.3593 77.7079 34.6785 77.704C34.9939 77.6991 35.3164 77.6015 35.6461 77.4111Z" fill="white"/>
</svg>
